<?xml version="1.0" standalone="no"?>
<!DOCTYPE svg PUBLIC "-//W3C//DTD SVG 20010904//EN"
 "http://www.w3.org/TR/2001/REC-SVG-20010904/DTD/svg10.dtd">
<svg version="1.0" xmlns="http://www.w3.org/2000/svg"
 width="225.000000pt" height="225.000000pt" viewBox="0 0 225.000000 225.000000"
 preserveAspectRatio="xMidYMid meet">

<g transform="translate(0.000000,225.000000) scale(0.100000,-0.100000)"
fill="#000000" stroke="none">
<path d="M1063 2143 c-19 -7 -16 -28 11 -67 26 -39 46 -132 46 -217 l0 -55
-107 -17 c-60 -10 -118 -17 -131 -17 l-23 0 32 60 c31 58 31 61 14 80 -22 24
-94 60 -122 60 -18 0 -20 -6 -20 -67 1 -88 -33 -159 -120 -253 -35 -37 -63
-71 -63 -74 0 -3 10 -6 23 -6 32 0 133 62 188 116 l46 45 143 3 142 2 -7 -85
c-4 -47 -8 -87 -9 -89 -12 -12 -679 -72 -806 -72 -53 0 -81 -4 -89 -14 -15
-18 -1 -28 68 -51 72 -24 116 -21 370 20 485 78 754 100 1111 90 140 -3 262
-4 271 0 38 15 -1 61 -71 83 -99 32 -166 32 -390 1 -118 -16 -248 -32 -289
-36 l-74 -6 7 84 c4 46 9 85 11 87 1 2 70 12 153 22 163 21 202 32 202 54 0
45 -130 56 -260 22 -52 -13 -97 -22 -99 -20 -10 10 20 145 41 189 l23 47 -30
24 c-30 24 -136 65 -164 63 -9 0 -22 -3 -28 -6z"/>
<path d="M1245 1410 c-75 -25 -230 -43 -382 -44 -103 -1 -166 -5 -173 -12 -8
-8 0 -24 29 -58 22 -25 56 -77 76 -115 35 -67 56 -88 76 -75 5 3 9 11 9 19 0
8 14 16 33 20 58 10 320 25 434 25 61 0 114 4 117 8 3 5 -4 23 -15 41 l-20 33
22 24 c12 13 37 29 56 36 37 13 41 27 16 50 -45 40 -214 69 -278 48z m79 -66
c23 -23 20 -50 -11 -84 -26 -28 -35 -31 -153 -44 -69 -8 -159 -17 -202 -21
-86 -7 -81 -11 -93 76 l-6 47 83 11 c246 34 359 39 382 15z"/>
<path d="M1180 1105 c0 -9 9 -33 20 -55 44 -86 50 -332 15 -564 -20 -132 -19
-171 8 -235 25 -61 52 -85 67 -61 22 33 33 100 34 200 l2 105 79 6 c44 4 168
10 275 14 107 4 203 12 212 16 46 24 -34 69 -137 76 -52 4 -113 -3 -239 -26
-93 -17 -175 -31 -182 -31 -11 0 -14 20 -14 89 l0 88 138 6 c124 4 244 25 264
45 15 15 -12 35 -56 42 -32 5 -74 0 -143 -15 -54 -12 -119 -25 -145 -29 l-46
-7 -7 75 c-4 41 -4 79 -1 85 4 6 26 11 49 11 53 0 254 25 325 40 62 14 72 41
21 59 -52 18 -102 13 -242 -24 -72 -19 -135 -35 -140 -35 -4 0 -6 19 -5 42 3
41 2 43 -47 70 -56 31 -105 37 -105 13z"/>
<path d="M845 1060 c-3 -5 6 -25 20 -46 27 -39 32 -69 14 -80 -6 -3 -101 -9
-212 -13 -125 -4 -202 -10 -201 -16 0 -5 18 -19 39 -29 36 -18 48 -18 213 -7
96 6 177 9 180 7 2 -3 1 -31 -3 -64 l-7 -59 -81 -7 c-45 -3 -127 -6 -182 -6
-151 0 -185 -16 -97 -43 26 -8 58 -18 72 -21 23 -5 168 6 254 20 l39 6 -5 -61
c-2 -33 -7 -63 -10 -67 -13 -12 -294 -63 -411 -74 -127 -12 -160 -23 -111 -37
63 -17 246 -8 383 20 74 15 136 26 138 24 2 -2 -6 -30 -18 -61 -20 -51 -21
-62 -10 -111 22 -100 69 -124 91 -48 6 21 15 148 21 283 5 135 14 279 20 320
18 118 18 121 -16 141 -37 22 -113 40 -120 29z"/>
</g>
</svg>
